<svg width="67" height="50" viewBox="0 0 67 50" fill="none" xmlns="http://www.w3.org/2000/svg">
<path d="M51.3887 19.4448C42.9645 19.4448 36.111 26.2983 36.111 34.7225C36.111 43.1467 42.9645 50.0003 51.3887 50.0003C54.0742 50.0003 56.7149 49.2936 59.0289 47.955C59.6921 47.5711 59.92 46.722 59.5347 46.0574C59.1509 45.3929 58.3005 45.1636 57.6372 45.5516C55.7465 46.6448 53.5858 47.2225 51.3885 47.2225C44.4956 47.2225 38.8886 41.6154 38.8886 34.7226C38.8886 27.8298 44.4957 22.2227 51.3885 22.2227C58.2813 22.2227 63.8885 27.8298 63.8885 34.7226V36.1115C63.8885 37.6428 62.642 38.8893 61.1108 38.8893C59.5795 38.8893 58.333 37.6428 58.333 36.1115V30.556C58.333 29.7883 57.7118 29.167 56.9441 29.167C56.5705 29.167 56.2349 29.3182 55.9855 29.5577C54.7579 28.4638 53.1582 27.7781 51.3885 27.7781C47.5597 27.7781 44.4442 30.8936 44.4442 34.7225C44.4442 38.5514 47.5597 41.667 51.3887 41.667C53.4584 41.667 55.2988 40.7385 56.5722 39.2969C57.5783 40.7262 59.2337 41.667 61.1109 41.667C64.1748 41.667 66.6663 39.1755 66.6663 36.1114V34.7225C66.6663 26.2984 59.8128 19.4448 51.3887 19.4448ZM51.3887 38.8893C49.091 38.8893 47.222 37.0203 47.222 34.7226C47.222 32.425 49.091 30.556 51.3887 30.556C53.6863 30.556 55.5553 32.425 55.5553 34.7226C55.5553 37.0203 53.6863 38.8893 51.3887 38.8893Z" fill="white"/>
<path d="M2.30441 3.21457L25.1844 21.8288C25.2603 21.8912 25.3431 21.9454 25.4298 21.9888C25.735 22.1448 26.0578 22.2234 26.3914 22.2234C26.744 22.2234 27.0967 22.1313 27.6121 21.8193L50.4745 3.21587C50.8135 2.94048 51.0021 2.52277 50.9858 2.08736C50.9695 1.65194 50.7497 1.24908 50.3916 0.999604C49.4545 0.345832 48.3571 0 47.222 0H5.55557C4.42029 0 3.32446 0.344529 2.38722 0.998302C2.02915 1.24648 1.80936 1.64934 1.79309 2.08606C1.77681 2.52147 1.96535 2.93918 2.30441 3.21457Z" fill="white"/>
<path d="M33.3331 34.7218C33.3331 24.7662 41.4331 16.6663 51.3886 16.6663C52.1564 16.6663 52.7776 16.0451 52.7776 15.2774V7.84342C52.7776 7.30761 52.4696 6.81934 51.9855 6.58887C51.5013 6.36374 50.9289 6.43015 50.5125 6.7666L29.2031 24.1071L28.959 24.2686C27.3571 25.2519 25.3891 25.3022 23.5811 24.1086L2.26509 6.76504C1.85142 6.42728 1.27903 6.35944 0.792053 6.58731C0.307941 6.81803 0 7.30631 0 7.84199V33.3329C0 36.3968 2.49152 38.8884 5.55557 38.8884H32.1654C32.5683 38.8884 32.9507 38.7134 33.2153 38.4097C33.4785 38.1059 33.5979 37.7016 33.5408 37.3029C33.3996 36.3154 33.3331 35.4948 33.3331 34.7218Z" fill="white"/>
</svg>
