<svg width="165" height="37" viewBox="0 0 165 37" fill="none" xmlns="http://www.w3.org/2000/svg">
<g opacity="0.9">
<g filter="url(#filter0_d)">
<path fill-rule="evenodd" clip-rule="evenodd" d="M68.6964 27.9433L81.6186 0H83.6002L96.5224 27.9433H94.2635L90.7357 20.1733H83.9378L83.0937 18.3143H89.8222L82.5285 2.25352L75.1957 18.3143L74.3675 20.1733L71.8474 25.7236L70.8397 27.9433H68.6964Z" fill="white"/>
</g>
<g filter="url(#filter1_d)">
<path fill-rule="evenodd" clip-rule="evenodd" d="M141.063 1.89808V0H161V1.89808H147.193H143.119H141.063ZM141.063 27.746V12.8049H143.119H147.193H161V14.703H143.119V25.848H161V27.746H141.063Z" fill="white"/>
</g>
<g filter="url(#filter2_d)">
<path fill-rule="evenodd" clip-rule="evenodd" d="M40.2678 15.501H43.1185H47.8814C50.4975 15.4743 52.584 14.8523 54.1373 13.6367C55.6923 12.421 56.4885 10.7682 56.5259 8.67997V8.59999C56.4885 6.39446 55.7119 4.72742 54.1959 3.5971C52.6817 2.46857 50.6557 1.90163 48.1178 1.8963H43.1167H40.266H38.2115V0H48.2795C51.3808 0.0195495 53.8618 0.76243 55.7226 2.2322C57.5833 3.70196 58.5377 5.78487 58.5857 8.48092V8.56089C58.559 10.5052 58.0525 12.1331 57.0661 13.4429C56.0798 14.7527 54.7717 15.7409 53.142 16.402C51.5123 17.0649 49.7191 17.3973 47.7624 17.3973H40.266V27.7443H38.2115V15.4992H40.2678V15.501Z" fill="white"/>
</g>
<g filter="url(#filter3_d)">
<path fill-rule="evenodd" clip-rule="evenodd" d="M15.1787 28.5387C17.9032 28.5031 20.1052 27.8029 21.7847 26.4345C23.4624 25.0678 24.3261 23.2461 24.3759 20.9695V20.8895C24.3972 18.883 23.681 17.2658 22.2272 16.0377C20.7735 14.8096 18.4506 13.8766 15.2605 13.2368C13.087 12.7925 11.4128 12.286 10.2363 11.7173C9.05976 11.1485 8.24935 10.4927 7.80326 9.74809C7.35896 9.00343 7.14747 8.14503 7.16879 7.17111V7.09114C7.19545 5.60715 7.8157 4.37198 9.02777 3.38918C10.2398 2.40637 11.8802 1.89453 13.9507 1.85721C15.4684 1.84655 16.9044 2.08647 18.2587 2.57699C19.6129 3.0675 20.9405 3.87081 22.2397 4.99046L23.5459 3.3643C22.1686 2.23754 20.7361 1.39335 19.2468 0.835304C17.7575 0.277256 16.0176 -0.00176879 14.0271 8.43625e-06C11.4004 0.0462163 9.26947 0.746443 7.6362 2.09891C6.00116 3.45316 5.16053 5.1824 5.11077 7.29019V7.37016C5.08411 9.44952 5.80922 11.1094 7.28964 12.3464C8.7683 13.5833 11.1604 14.5288 14.4661 15.1811C16.549 15.5987 18.1609 16.0803 19.3055 16.6242C20.4482 17.168 21.2426 17.8043 21.6852 18.5347C22.1277 19.2634 22.3392 20.1146 22.3196 21.0886V21.1685C22.2877 22.7858 21.6372 24.101 20.3718 25.114C19.1046 26.127 17.4145 26.6495 15.3014 26.6797C13.2896 26.6833 11.5017 26.3492 9.93771 25.6738C8.37375 24.9985 6.84534 23.9588 5.35247 22.5566L4 24.1027C5.64216 25.5885 7.36607 26.6993 9.16995 27.435C10.9738 28.1726 12.9768 28.5405 15.1787 28.5387Z" fill="white"/>
</g>
<g filter="url(#filter4_d)">
<path fill-rule="evenodd" clip-rule="evenodd" d="M117.812 28.5387C120.536 28.5031 122.738 27.8029 124.418 26.4345C126.096 25.0678 126.959 23.2461 127.009 20.9695V20.8895C127.03 18.883 126.314 17.2658 124.86 16.0377C123.407 14.8096 121.084 13.8766 117.894 13.2368C115.72 12.7925 114.046 12.286 112.869 11.7173C111.693 11.1485 110.882 10.4927 110.436 9.74809C109.992 9.00343 109.781 8.14503 109.802 7.17111V7.09114C109.829 5.60715 110.449 4.37198 111.661 3.38918C112.873 2.40637 114.513 1.89453 116.584 1.85721C118.102 1.84655 119.538 2.08647 120.892 2.57699C122.246 3.0675 123.574 3.87081 124.873 4.99046L126.179 3.3643C124.805 2.23576 123.373 1.39335 121.884 0.835304C120.394 0.277256 118.654 -0.00176879 116.664 8.43625e-06C114.037 0.0462163 111.906 0.746443 110.271 2.09891C108.636 3.45316 107.795 5.1824 107.746 7.29019V7.37016C107.719 9.44952 108.444 11.1094 109.925 12.3464C111.403 13.5833 113.795 14.5288 117.101 15.1811C119.184 15.5987 120.796 16.0803 121.94 16.6242C123.083 17.168 123.878 17.8043 124.32 18.5347C124.763 19.2634 124.974 20.1146 124.955 21.0886V21.1685C124.923 22.7858 124.272 24.101 123.007 25.114C121.74 26.127 120.049 26.6495 117.936 26.6797C115.924 26.6833 114.137 26.3492 112.573 25.6738C111.009 24.9985 109.48 23.9588 107.987 22.5566L106.64 24.1027C108.282 25.5885 110.006 26.6993 111.81 27.435C113.607 28.1726 115.61 28.5405 117.812 28.5387Z" fill="white"/>
</g>
</g>
<defs>
<filter id="filter0_d" x="64.6964" y="0" width="35.826" height="35.9433" filterUnits="userSpaceOnUse" color-interpolation-filters="sRGB">
<feFlood flood-opacity="0" result="BackgroundImageFix"/>
<feColorMatrix in="SourceAlpha" type="matrix" values="0 0 0 0 0 0 0 0 0 0 0 0 0 0 0 0 0 0 127 0" result="hardAlpha"/>
<feOffset dy="4"/>
<feGaussianBlur stdDeviation="2"/>
<feColorMatrix type="matrix" values="0 0 0 0 0 0 0 0 0 0 0 0 0 0 0 0 0 0 0.25 0"/>
<feBlend mode="normal" in2="BackgroundImageFix" result="effect1_dropShadow"/>
<feBlend mode="normal" in="SourceGraphic" in2="effect1_dropShadow" result="shape"/>
</filter>
<filter id="filter1_d" x="137.063" y="0" width="27.9369" height="35.746" filterUnits="userSpaceOnUse" color-interpolation-filters="sRGB">
<feFlood flood-opacity="0" result="BackgroundImageFix"/>
<feColorMatrix in="SourceAlpha" type="matrix" values="0 0 0 0 0 0 0 0 0 0 0 0 0 0 0 0 0 0 127 0" result="hardAlpha"/>
<feOffset dy="4"/>
<feGaussianBlur stdDeviation="2"/>
<feColorMatrix type="matrix" values="0 0 0 0 0 0 0 0 0 0 0 0 0 0 0 0 0 0 0.25 0"/>
<feBlend mode="normal" in2="BackgroundImageFix" result="effect1_dropShadow"/>
<feBlend mode="normal" in="SourceGraphic" in2="effect1_dropShadow" result="shape"/>
</filter>
<filter id="filter2_d" x="34.2115" y="0" width="28.3741" height="35.7443" filterUnits="userSpaceOnUse" color-interpolation-filters="sRGB">
<feFlood flood-opacity="0" result="BackgroundImageFix"/>
<feColorMatrix in="SourceAlpha" type="matrix" values="0 0 0 0 0 0 0 0 0 0 0 0 0 0 0 0 0 0 127 0" result="hardAlpha"/>
<feOffset dy="4"/>
<feGaussianBlur stdDeviation="2"/>
<feColorMatrix type="matrix" values="0 0 0 0 0 0 0 0 0 0 0 0 0 0 0 0 0 0 0.25 0"/>
<feBlend mode="normal" in2="BackgroundImageFix" result="effect1_dropShadow"/>
<feBlend mode="normal" in="SourceGraphic" in2="effect1_dropShadow" result="shape"/>
</filter>
<filter id="filter3_d" x="0" y="0" width="28.3764" height="36.5387" filterUnits="userSpaceOnUse" color-interpolation-filters="sRGB">
<feFlood flood-opacity="0" result="BackgroundImageFix"/>
<feColorMatrix in="SourceAlpha" type="matrix" values="0 0 0 0 0 0 0 0 0 0 0 0 0 0 0 0 0 0 127 0" result="hardAlpha"/>
<feOffset dy="4"/>
<feGaussianBlur stdDeviation="2"/>
<feColorMatrix type="matrix" values="0 0 0 0 0 0 0 0 0 0 0 0 0 0 0 0 0 0 0.25 0"/>
<feBlend mode="normal" in2="BackgroundImageFix" result="effect1_dropShadow"/>
<feBlend mode="normal" in="SourceGraphic" in2="effect1_dropShadow" result="shape"/>
</filter>
<filter id="filter4_d" x="102.64" y="0" width="28.3692" height="36.5387" filterUnits="userSpaceOnUse" color-interpolation-filters="sRGB">
<feFlood flood-opacity="0" result="BackgroundImageFix"/>
<feColorMatrix in="SourceAlpha" type="matrix" values="0 0 0 0 0 0 0 0 0 0 0 0 0 0 0 0 0 0 127 0" result="hardAlpha"/>
<feOffset dy="4"/>
<feGaussianBlur stdDeviation="2"/>
<feColorMatrix type="matrix" values="0 0 0 0 0 0 0 0 0 0 0 0 0 0 0 0 0 0 0.25 0"/>
<feBlend mode="normal" in2="BackgroundImageFix" result="effect1_dropShadow"/>
<feBlend mode="normal" in="SourceGraphic" in2="effect1_dropShadow" result="shape"/>
</filter>
</defs>
</svg>
