<svg width="47" height="47" viewBox="0 0 47 47" fill="none" xmlns="http://www.w3.org/2000/svg">
<path d="M1.46871 14.6874H45.5312C46.3419 14.6874 46.9999 14.0294 46.9999 13.2187C46.9999 12.4079 46.3418 11.75 45.5312 11.75H1.46871C0.657929 11.75 0 12.4081 0 13.2187C0 14.0294 0.658051 14.6874 1.46871 14.6874Z" fill="white"/>
<path d="M45.5312 22.0312H1.46871C0.657929 22.0312 0 22.6893 0 23.5C0 24.3106 0.658051 24.9687 1.46871 24.9687H45.5312C46.3419 24.9687 46.9999 24.3106 46.9999 23.5C46.9999 22.6893 46.3419 22.0312 45.5312 22.0312Z" fill="white"/>
<path d="M45.5314 32.3125H16.1564C15.3456 32.3125 14.6877 32.9706 14.6877 33.7812C14.6877 34.592 15.3457 35.2499 16.1564 35.2499H45.5314C46.3421 35.2499 47.0001 34.5919 47.0001 33.7812C47.0002 32.9704 46.3421 32.3125 45.5314 32.3125Z" fill="white"/>
</svg>
