<svg width="38" height="68" viewBox="0 0 38 68" fill="none" xmlns="http://www.w3.org/2000/svg">
<path d="M30.1963 0H7.22393C3.31842 0 0 3.18447 0 7.0889V60.9192C0 64.8236 3.2482 68 7.15372 68L30.1639 67.9752C34.0689 67.9752 37.2636 64.7982 37.2636 60.8933L37.2971 7.08512C37.2965 3.16665 34.1175 0 30.1963 0ZM15.3914 4.2501H22.0563C22.6418 4.2501 23.1187 4.7254 23.1187 5.31249C23.1187 5.89959 22.6418 6.37488 22.0563 6.37488H15.3914C14.8043 6.37488 14.329 5.89959 14.329 5.31249C14.329 4.7254 14.8043 4.2501 15.3914 4.2501ZM11.3865 4.58821C11.7803 4.19501 12.497 4.18961 12.8902 4.58821C13.0873 4.78481 13.204 5.0608 13.204 5.34274C13.204 5.61927 13.0873 5.89473 12.8902 6.09187C12.6941 6.289 12.4171 6.40513 12.1411 6.40513C11.8597 6.40513 11.5891 6.289 11.3865 6.09187C11.1905 5.89527 11.0787 5.61927 11.0787 5.34274C11.0781 5.0608 11.1905 4.78481 11.3865 4.58821ZM18.5095 65.8941C16.7563 65.8941 15.3304 64.4672 15.3304 62.7145C15.3304 60.9613 16.7563 59.5349 18.5095 59.5349C20.2627 59.5349 21.6885 60.9613 21.6885 62.7145C21.6885 64.4672 20.2621 65.8941 18.5095 65.8941ZM33.9992 57.3739H3.71864V10.0941H33.9992V57.3739Z" fill="white"/>
</svg>
