<svg width="40" height="40" viewBox="0 0 40 40" fill="none" xmlns="http://www.w3.org/2000/svg">
<g clip-path="url(#clip0)">
<path d="M8.23925 16.7836C8.72728 13.716 12.5618 10.4392 15.5597 10.3695C15.7688 10.3695 15.978 10.2998 16.1174 10.1604C16.2568 10.0906 16.3963 10.0209 16.466 9.81177C17.5118 7.85966 16.954 6.32586 15.2111 5.07094C13.1892 3.60685 9.98221 5.07094 8.37869 6.39558C4.33504 9.74205 0.221668 15.5285 0.430822 21.0364C-0.266359 24.7316 -0.126923 28.7054 0.918849 31.9821C1.61603 34.0737 3.63786 35.1195 5.7294 35.2589C7.82095 35.3985 12.1435 36.0258 14.0259 34.771C15.9083 33.5159 16.0477 31.0758 16.2568 28.9844C16.466 26.6837 17.0935 22.361 15.1414 20.5484C13.1892 18.8054 7.61179 20.6878 8.23925 16.7836Z" fill="white"/>
<path d="M31.2462 16.7836C31.7343 13.716 35.5686 10.4392 38.5666 10.3695C38.7758 10.3695 38.9849 10.2998 39.1244 10.1604C39.2639 10.0906 39.4032 10.0209 39.4731 9.81177C40.5189 7.85966 39.9611 6.32586 38.2182 5.07094C36.1963 3.60685 32.9893 5.07094 31.3857 6.39558C27.342 9.74205 23.2286 15.5287 23.4378 21.0364C22.7406 24.7316 22.88 28.7054 23.9257 31.9821C24.6229 34.0737 26.6447 35.1195 28.7364 35.2589C30.8279 35.3985 35.1504 36.0258 37.0328 34.771C38.9151 33.5159 39.0547 31.0758 39.2638 28.9844C39.473 26.6837 40.1004 22.361 38.1483 20.5484C36.1962 18.8054 30.549 20.6878 31.2462 16.7836Z" fill="white"/>
</g>
<defs>
<clipPath id="clip0">
<rect width="40" height="40" fill="white"/>
</clipPath>
</defs>
</svg>
