<svg width="51" height="50" viewBox="0 0 51 50" fill="none" xmlns="http://www.w3.org/2000/svg">
<path d="M47.9187 28.6213C48.5007 25.0035 48.216 21.2993 47.0879 17.8129C45.9598 14.3266 44.0205 11.1577 41.4295 8.56666C38.8384 5.97561 35.6695 4.03635 32.1831 2.90824C28.6968 1.78012 24.9926 1.49536 21.3748 2.07734C18.6875 0.425494 15.522 -0.272472 12.3892 0.0961305C9.25648 0.464733 6.3393 1.87839 4.10883 4.10886C1.87835 6.33934 0.464731 9.25645 0.0961284 12.3892C-0.272474 15.522 0.425518 18.6875 2.07737 21.3748C1.51042 24.9899 1.80566 28.6879 2.93911 32.1673C4.07255 35.6466 6.01209 38.8089 8.59962 41.3965C11.1872 43.984 14.3495 45.9235 17.8288 47.057C21.3082 48.1904 25.0062 48.4857 28.6213 47.9188C30.7468 49.2268 33.1826 49.9442 35.6778 49.9969C38.173 50.0496 40.637 49.4356 42.8158 48.2184C44.9946 47.0012 46.8092 45.2249 48.0725 43.0725C49.3358 40.9201 50.002 38.4697 50.0025 35.974C50.0087 33.3765 49.2869 30.8293 47.9187 28.6213ZM35.974 35.5493C34.8854 37.0473 33.3877 38.1994 31.6606 38.8673C29.5495 39.701 27.2939 40.107 25.0246 40.0617C22.3836 40.1548 19.7611 39.5892 17.3932 38.416C15.9757 37.6678 14.7635 36.5832 13.8629 35.2573C13.0416 34.143 12.5787 32.8053 12.5357 31.4217C12.5429 31.0659 12.6246 30.7156 12.7755 30.3932C12.9263 30.0709 13.143 29.7838 13.4116 29.5503C13.6945 29.2873 14.0265 29.0827 14.3886 28.9483C14.7508 28.814 15.1359 28.7524 15.5219 28.7673C16.1603 28.7535 16.7822 28.9702 17.2737 29.3778C17.8082 29.8747 18.2215 30.4877 18.4815 31.1695C18.836 31.9783 19.2812 32.7441 19.8087 33.4523C20.3137 34.1008 20.9699 34.6158 21.7199 34.952C22.7465 35.3873 23.8576 35.5868 24.9715 35.536C26.556 35.6046 28.1242 35.1929 29.4707 34.3548C29.9816 34.0493 30.4059 33.6182 30.7032 33.1025C31.0006 32.5868 31.1611 32.0036 31.1695 31.4084C31.1899 30.9896 31.1199 30.5713 30.9642 30.1819C30.8084 29.7926 30.5707 29.4414 30.267 29.1522C29.5706 28.5356 28.7454 28.0822 27.8515 27.825C26.8561 27.5197 25.5289 27.1747 23.8699 26.8296C21.9406 26.4357 20.0522 25.8625 18.2293 25.1175C16.8154 24.5486 15.5656 23.6363 14.5928 22.4631C13.6719 21.2388 13.203 19.7335 13.2656 18.2028C13.2408 16.6503 13.7413 15.135 14.6857 13.9027C15.7484 12.5694 17.1719 11.5696 18.7867 11.0227C20.8058 10.3102 22.937 9.96849 25.0776 10.014C26.7649 9.98373 28.4472 10.2074 30.0679 10.6776C31.3372 11.0552 32.5285 11.6576 33.585 12.456C34.4214 13.0786 35.1177 13.8699 35.6289 14.7786C36.0419 15.5129 36.2654 16.3385 36.2792 17.1809C36.2722 17.9141 35.9766 18.6151 35.4563 19.1318C35.1925 19.4156 34.8716 19.6403 34.5148 19.7913C34.158 19.9422 33.7733 20.016 33.3859 20.0078C32.7692 20.049 32.1591 19.8598 31.6739 19.4769C31.1742 18.9872 30.7534 18.4231 30.4263 17.8046C29.9517 16.8233 29.2622 15.9614 28.4089 15.283C27.2865 14.5862 25.9694 14.2697 24.6529 14.3805C23.2881 14.3165 21.935 14.6582 20.7643 15.3626C20.3431 15.5884 19.9881 15.9203 19.7344 16.3253C19.4807 16.7302 19.3371 17.1944 19.3177 17.6719C19.3052 18.1908 19.4742 18.6977 19.7954 19.1053C20.1596 19.5472 20.6116 19.9087 21.1226 20.167C21.6929 20.4549 22.2882 20.6904 22.9011 20.8705L25.9138 21.6137C27.679 21.9986 29.2717 22.4233 30.705 22.8745C31.9942 23.2695 33.2225 23.8412 34.3548 24.5733C35.3494 25.1969 36.1673 26.0651 36.7305 27.095C37.3335 28.2482 37.6305 29.5369 37.5931 30.8377C37.6148 32.5454 37.0995 34.2167 36.1199 35.6156L35.974 35.5493Z" fill="#F1F2F2"/>
</svg>
