<svg width="60" height="50" viewBox="0 0 60 50" fill="none" xmlns="http://www.w3.org/2000/svg">
<path d="M59.3925 3.20852C59.1931 4.74494 58.9021 6.26801 58.5212 7.76957C55.7461 20.6764 53.014 33.5994 50.325 46.5385C50.198 47.2896 49.953 48.0156 49.5989 48.6897C49.3381 49.1895 48.9128 49.5834 48.3952 49.8045C47.8776 50.0256 47.2996 50.0603 46.7593 49.9027C45.9982 49.7099 45.2844 49.3631 44.6618 48.8837L32.2868 39.6808C32.2114 39.5834 32.1148 39.5045 32.0044 39.4503C31.8939 39.3961 31.7725 39.3679 31.6495 39.3679C31.5265 39.3679 31.4052 39.3961 31.2947 39.4503C31.1842 39.5045 31.0876 39.5834 31.0122 39.6808C28.9954 41.7025 26.9141 43.6919 24.8812 45.6975C24.5353 46.0855 24.1094 46.3934 23.633 46.6001C23.1566 46.8068 22.6411 46.9072 22.1222 46.8943C21.7789 46.9143 21.4396 46.8115 21.1648 46.6042C20.89 46.3968 20.6976 46.0984 20.6217 45.7622C19.3525 41.7834 18.0671 37.8046 16.7656 33.8258C16.33 32.4834 15.8783 31.1409 15.4588 29.7823C15.4114 29.5644 15.3025 29.3648 15.1452 29.2071C14.9879 29.0494 14.7887 28.9403 14.5714 28.8927L2.47062 25.108C1.93219 24.9725 1.41602 24.7601 0.937894 24.4773C0.683673 24.3808 0.461563 24.2147 0.296865 23.9979C0.132167 23.7811 0.0314793 23.5223 0.00626222 23.251C-0.0189549 22.9796 0.0323096 22.7067 0.154222 22.4631C0.276135 22.2195 0.463777 22.0152 0.69584 21.8733C1.39597 21.2814 2.20039 20.8261 3.06759 20.5308L19.5568 14.1906L55.1653 0.426605L55.4396 0.313388C55.8909 0.0757855 56.3997 -0.030213 56.9081 0.00742376C57.4165 0.0450605 57.9042 0.224826 58.3159 0.526313C58.7275 0.8278 59.0466 1.23893 59.2369 1.71304C59.4272 2.18715 59.4811 2.70525 59.3925 3.20852ZM22.0899 43.1582C22.1574 43.1235 22.2132 43.0698 22.2505 43.0037C22.2877 42.9376 22.3049 42.8619 22.2997 42.7862C22.5578 39.891 22.8482 36.9797 23.0741 34.0846C23.0865 33.7473 23.1689 33.4162 23.3162 33.1127C23.4634 32.8091 23.6722 32.5397 23.9293 32.3216L47.0981 11.2955C47.5822 10.8588 48.0823 10.4221 48.5502 9.96923C48.7438 9.77514 49.002 9.56488 48.8568 9.25758C48.7115 8.95027 48.3566 8.95027 48.05 8.98262C47.4657 9.07627 46.9124 9.30924 46.4366 9.66193L17.9434 27.7929C17.831 27.8409 17.7298 27.9121 17.6466 28.0018C17.5634 28.0916 17.5 28.1979 17.4604 28.3138C17.4208 28.4297 17.406 28.5527 17.417 28.6747C17.4279 28.7968 17.4644 28.9151 17.524 29.0221C18.7018 32.548 19.8473 36.0901 21.0089 39.6322C21.38 40.8129 21.7673 41.9775 22.0899 43.1582Z" fill="#FEFEFE"/>
</svg>
